<?xml version="1.0" encoding="UTF-8"?>
<svg id="Layer_1" xmlns="http://www.w3.org/2000/svg" version="1.1" viewBox="0 0 3168 792">
  <!-- Generator: Adobe Illustrator 29.5.0, SVG Export Plug-In . SVG Version: 2.1.0 Build 35)  -->
  <defs>
    <style>
      .st0 {
        fill: #ccc;
        stroke: #ccc;
        stroke-width: 5.2px;
      }

      .st0, .st1 {
        stroke-miterlimit: 10;
      }

      .st2 {
        fill: #2a2a2a;
      }

      .st3 {
        fill: #fff;
      }

      .st1 {
        fill: none;
        stroke: #3a3a3a;
        stroke-width: 25.8px;
      }

      .st4 {
        isolation: isolate;
      }

      .st5 {
        fill: #3d824e;
      }
    </style>
  </defs>
  <path class="st1" d="M493,36.8c39.8-1.5,79.5-1,118.8,4.6,70.2,9.8,138.9,31.5,199.9,67.1,50.1,28.9,95.6,67.1,129.1,114.2,33.6,46,55.3,100.7,58.4,157.5.5,16.5.5,32.5-1.5,49.1-7.7,62-36.7,120.4-78,166.8-38.2,43.9-86.3,78-138.4,103.3-84.2,40.8-178.7,58.9-272.2,56.3-86.3-2.6-172.5-23.8-249.5-64.6-62.5-33.1-118.3-80.6-156-140.5-25.8-41.8-42.4-90.4-44.9-139.5,0-15.5-1-31.5,1.5-47,5.2-52.2,26.9-101.8,57.3-143.6,27.9-38.2,64-70.8,103.3-97.1,74.9-49.6,162.7-77,251.5-85.2,6.7-.5,13.9-1,20.7-1.5h0v.1h0Z"/>
  <g id="Layer_2">
    <g>
      <path class="st0" d="M349.4,391.1c10.8-1,22.2-1.5,33.6-.5.5.5,1,2.1,1.5,3.1,1,7.7.5,15.5-.5,23.2-11.4,1-22.7.5-34.1,0-1.5-8.3-1.5-17-.5-25.8h0Z"/>
      <path class="st0" d="M760,390.6c9.3,0,18.6-.5,27.9.5v11.9c-9.3.5-18.6.5-27.9.5.5-4.1,0-8.8,0-12.9h0Z"/>
      <path class="st0" d="M892.8,390.1c10.3,0,20.1-.5,30.5.5v11.9c-10.3.5-20.1.5-30.5.5v-12.9h0Z"/>
      <path class="st0" d="M145.9,409.7c3.1-6.7,6.2-12.9,9.8-19.6,3.1,6.2,6.2,12.9,9.8,19.1-6.7,0-12.9.5-19.6.5h0Z"/>
    </g>
    <g>
      <path class="st2" d="M337,97.8c56.8-22.2,117.8-33.1,178.2-35.1,12.4-.5,24.8.5,37.2,1.5,46.5,3.6,92.5,10.8,137.4,23.8,50.6,15,99.2,37.2,141,68.7,32.5,24.8,61.5,54.8,83.2,88.8,19.1,30,33.6,62.5,40.8,97.6H99.9c4.1-25.8,14.5-50.1,27.4-72.8,19.1-33.1,43.4-62.5,71.8-87.8,39.8-36.7,87.3-65.1,137.9-84.7h0ZM302.9,122.5c-42.9,21.2-83.2,48-116.7,82.1-24.3,24.8-45.5,53.2-59.9,85.2-7.2,15-12.9,31-17.6,47h837.3c-16-55.3-47.5-105.4-89.9-144.6-30-27.9-65.1-50.6-101.8-68.7-63.5-30.5-133.3-47.5-203.5-52.2-21.7-1-43.9-1-66.1.5-63,5.7-125,23.2-181.8,50.6h0v.1h0Z"/>
      <path class="st2" d="M198,372h15.5c.5,11.9-.5,23.2.5,35.1,0,3.1,3.6,5.2,6.2,5.2,8.3.5,16.5,0,24.8-1,1.5-12.9.5-26.3,1-39.3h15.5c0,12.9.5,26.3,0,39.3,0,8.3-8.3,15-16.5,15h-31c-9.8.5-16-9.8-16-18.6v-35.6h0v-.1Z"/>
      <path class="st2" d="M144.8,372.5h20.1c8.8,17.6,17.6,35.6,26.3,53.2h-15.5c-2.1-3.1-3.6-6.7-5.2-9.8-10.8,0-21.2.5-31.5.5-1.5,2.6-2.6,5.7-4.1,8.3h-17c8.8-17,18.1-34.6,26.9-52.2h0ZM145.9,404.6h19.1c-3.1-6.2-6.2-12.9-9.8-19.1-2.6,5.7-5.7,12.4-9.3,19.1Z"/>
      <path class="st2" d="M267.8,372h58.4v12.9h-21.7v40.3h-15.5v-40.3h-21.2v-12.9h0Z"/>
      <path class="st2" d="M343.7,372.5c11.4-1.5,22.7-.5,34.6-1,6.2.5,13.9-.5,18.6,4.6,5.2,6.2,4.1,15,4.1,22.7-.5,7.2,1.5,15-3.1,21.7-3.1,5.2-9.8,5.7-15.5,5.7h-30.5c-5.7,0-11.9-1.5-15.5-6.2-3.6-4.1-3.1-9.8-3.1-15.5s-.5-15,.5-22.7c.5-4.6,5.2-8.3,9.8-9.3h.1ZM349.4,386c-.5,8.8-1,17.6.5,25.8,11.4.5,22.7,1,34.1,0,1-7.7,1.5-15.5.5-23.2-.5-.5-1-2.1-1.5-3.1-11.4-.5-22.7-.5-33.6.5h0Z"/>
      <path class="st2" d="M443.9,380.3c.5-4.6,5.2-7.7,9.8-8.3,9.3-1,19.1-.5,28.9-.5s12.9-.5,18.1,2.6c4.6,3.1,3.6,9.3,4.1,13.9h-14.5c-.5-1-1.5-3.1-2.1-4.1-9.8-1-19.6-.5-29.4,0,0,2.1.5,5.7.5,7.2,10.8,1,22.2,0,33.6.5,4.6.5,10.3,2.1,12.4,6.7,1.5,6.2,1,12.4.5,18.6-.5,5.2-6.2,8.3-10.8,8.8-11.4,1-23.2,0-34.6,0s-12.4,0-15-5.7c-2.1-3.6-1.5-7.7-2.1-11.9h15c.5,2.1,1,4.1,1.5,6.2,10.3,0,20.7.5,31-.5v-9.3c-11.4-1-22.7,0-34.6-1-4.6,0-9.8-2.1-11.4-7.2s-1.5-10.8-1-16h.1Z"/>
      <path class="st2" d="M511.6,373.1h58.4v12.9h-21.7v40.3h-15.5v-40.3h-21.2v-12.9h0Z"/>
      <path class="st2" d="M598.3,372h20.1c9.3,17.6,17.6,35.6,26.9,53.2h-16c-2.1-3.6-3.6-6.7-5.7-9.8-10.8.5-21.2.5-31.5.5-1.5,2.6-2.6,5.7-3.6,8.3h-17c9.3-17.6,18.1-34.6,26.9-52.2h-.1ZM608.7,384.4c-3.6,6.2-6.7,12.9-9.8,19.1h19.6c-3.1-6.2-6.7-12.9-9.8-19.1h0Z"/>
      <path class="st2" d="M652.1,372h23.2c5.7,11.4,11.4,22.7,17,33.6,5.7-10.8,10.8-22.2,16.5-33.6h24.3v53.2h-15v-37.2c-7.2,12.4-13.9,24.8-20.7,37.2h-10.8c-6.7-12.4-13.4-24.8-20.7-37.2-.5,12.4-.5,24.3-.5,36.7h-13.9c.5-17.6.5-35.1.5-52.7h.1Z"/>
      <path class="st2" d="M744,372c15,0,30.5.5,46,.5s12.9,3.6,13.9,9.8c.5,6.2,1,12.4,0,18.6-1,4.6-4.6,10.3-9.8,10.3-11.9.5-22.7,0-34.6.5v13.4h-15.5v-53.2h0v.1h0ZM760,385.5v12.9c9.3,0,18.1,0,27.9-.5v-11.9c-9.3-1-18.6-.5-27.9-.5h0Z"/>
      <path class="st2" d="M812.2,372h54.2v12.4h-38.7v8.3h37.2v10.3h-37.2v9.8h40.3v12.4h-55.3c-.5-17.6,0-35.1-.5-53.2h0Z"/>
      <path class="st2" d="M877.3,372c16.5,0,33.6,0,50.1.5,4.6-.5,9.8,3.1,10.3,8.3.5,6.2.5,12.4-.5,18.1-1.5,3.1-5.2,4.1-7.7,5.7,3.1,1,7.7,1.5,8.3,5.7,1,4.6,0,10.3.5,15h-15.5v-12.4c-9.8-.5-20.1-.5-30.5-.5v12.9h-15v-53.2h0v-.1h0ZM892.8,384.9v12.9c10.3,0,20.1.5,30.5-.5v-11.9c-10.3-1-20.7-.5-30.5-.5h0Z"/>
      <path class="st2" d="M97.8,449.5h863.1c-10.8,38.7-28.4,75.9-52.2,109-31.5,43.9-74.4,80.1-121.9,105.9-61,33.6-129.1,51.7-197.8,58.4-110,11.4-223.7-10.8-319.7-65.6-51.1-28.9-98.1-67.1-132.7-115.2-19.6-27.4-35.1-58.4-38.7-92.5h-.0999ZM107.1,456.7c8.8,44.4,34.1,84.7,65.1,117.3,30,31.5,65.1,56.8,102.8,77.5,39.8,21.7,82.1,38.7,126,50.1,41.8,10.8,85.2,17.6,129.1,16.5,62.5-.5,125-9.8,184.4-30.5,54.8-19.1,106.4-47.5,148.2-87.3,41.8-39.3,73.9-89.4,90.9-143.6H107.1Z"/>
    </g>
    <g>
      <path class="st3" d="M493,36.8c39.8-1.5,79.5-1,118.8,4.6,70.2,9.8,138.9,31.5,199.9,67.1,50.1,28.9,95.6,67.1,129.1,114.2,33.6,46,55.3,100.7,58.4,157.5.5,16.5.5,32.5-1.5,49.1-7.7,62-36.7,120.4-78,166.8-38.2,43.9-86.3,78-138.4,103.3-84.2,40.8-178.7,58.9-272.2,56.3-86.3-2.6-172.5-23.8-249.5-64.6-62.5-33.1-118.3-80.6-156-140.5-25.8-41.8-42.4-90.4-44.9-139.5,0-15.5-1-31.5,1.5-47,5.2-52.2,26.9-101.8,57.3-143.6,27.9-38.2,64-70.8,103.3-97.1,74.9-49.6,162.7-77,251.5-85.2,6.7-.5,13.9-1,20.7-1.5h0v.1h0ZM337,97.8c-50.6,19.6-98.1,48-138.4,84.7-27.9,25.3-52.7,54.8-71.8,87.8-12.9,22.7-23.2,47-27.4,72.8h854.9c-6.7-34.6-21.7-67.7-40.8-97.6-21.7-34.1-50.6-64.6-83.2-88.8-41.8-31.5-90.4-53.7-141-68.7-44.4-12.9-90.9-20.7-137.4-23.8-12.4-1-24.8-2.1-37.2-1.5-59.9,2.1-120.9,13.4-177.7,35.1h0ZM198,372v35.6c-.5,8.8,6.2,19.1,16,18.6,10.3.5,20.7,0,31,0s16.5-6.2,16.5-15c.5-12.9,0-26.3,0-39.3h-15.5c-.5,13.4,1,26.3-1,39.3-8.3,1-16.5,1.5-24.8,1-2.6-.5-6.2-2.1-6.2-5.2-.5-11.9,0-23.2-.5-35.1h-15.5v.1ZM144.8,372.5c-8.8,17.6-18.1,35.1-27.4,52.2h17c1.5-2.6,2.6-5.7,4.1-8.3,10.3,0,21.2-.5,31.5-.5,1.5,3.1,3.6,6.7,5.2,9.8h15.5c-8.8-17.6-17.6-35.6-26.3-53.2h-19.6,0ZM267.8,372v12.9h21.2v40.3h15.5v-40.3h21.7v-12.9h-58.4ZM343.7,372.5c-4.6,1-9.3,4.6-9.8,9.8-1,7.7-.5,15-.5,22.7s-.5,10.8,3.1,15.5c3.6,4.6,9.8,6.2,15.5,6.2h30.5c5.7,0,12.4-1,15.5-5.7,4.6-6.2,3.1-14.5,3.1-21.7-.5-7.7,1-16-4.1-22.7-4.6-5.2-12.4-4.1-18.6-4.6-11.9,0-23.2-1-34.6.5h-.1ZM443.9,380.3c-.5,5.7-.5,10.8,0,16,1.5,5.2,6.7,7.2,11.4,7.2,11.9,1,23.2,0,34.6,1v9.3c-10.3,1-20.7.5-31,.5-.5-2.1-1-4.1-1.5-6.2h-15c.5,4.1,0,8.8,1.5,12.4,3.1,5.7,9.8,5.7,15,5.7,11.4,0,23.2,1,34.6,0,5.2-.5,10.3-3.1,10.8-8.8.5-6.2,1-12.4-.5-18.6-2.1-5.2-7.7-6.7-12.4-6.7-11.4-.5-22.2.5-33.6-.5,0-1.5-.5-5.7-.5-7.2,9.8,0,19.6-1,29.4,0,.5,1,1.5,3.1,2.1,4.1h14.5c-.5-4.6.5-10.8-4.1-13.9-5.2-3.1-12.4-2.6-18.1-2.6-9.3,0-19.1-.5-28.9.5-3.1,0-7.7,2.6-8.3,7.7h0v.1ZM511.6,373.1v12.9h21.2v40.3h15.5v-40.3h21.7v-12.9h-58.4ZM598.3,372c-8.8,17.6-18.1,34.6-26.9,52.2h17c1.5-2.6,2.6-5.7,3.6-8.3,10.8,0,21.2-.5,31.5-.5,1.5,3.6,3.6,6.7,5.7,9.8h16c-8.8-17.6-17.6-35.6-26.9-53.2h-20.1.1ZM652.1,372v52.7h13.9c0-12.4,0-24.3.5-36.7,7.2,12.4,13.9,24.8,20.7,37.2h10.8c6.7-12.4,13.4-24.8,20.7-37.2v37.2h15v-53.2h-24.3c-5.7,11.4-11.4,22.7-16.5,33.6-5.7-10.8-11.4-22.2-17-33.6h-23.8ZM744,372v53.2h15.5v-13.4c11.4-.5,22.7.5,34.6-.5,5.2-.5,8.8-5.7,9.8-10.3.5-6.2.5-12.4,0-18.6-1-6.2-7.7-9.8-13.9-9.8-15.5,0-31,0-46-.5h0v-.1h0ZM812.2,372c.5,18.1,0,35.6,0,53.2h55.3v-12.4h-40.3v-9.8h37.2v-10.3h-37.2v-8.3h38.7v-12.4h-53.7ZM877.3,372v53.2h15v-12.9c9.8,0,20.7,0,30.5.5v12.4h15.5c0-4.6.5-10.3-.5-15-.5-4.1-5.2-4.6-8.3-5.7,2.6-2.1,6.2-3.1,7.7-5.7,1-6.2.5-12.4.5-18.1-.5-5.2-5.7-8.3-10.3-8.3-16.5-.5-33.6-.5-50.1-.5h0v.1h0ZM97.8,449.5c3.1,34.1,19.1,64.6,38.7,92.5,34.6,48,81.6,86.3,132.7,115.2,96.1,54.8,209.7,77,319.7,65.6,68.7-6.7,136.9-24.8,197.8-58.4,47.5-25.8,89.9-62,121.9-105.9,23.8-33.1,41.3-70.2,52.2-109H97.8Z"/>
      <path class="st3" d="M466.6,90c16-.5,32-1.5,48.6-2.1,0,8.3.5,17,.5,25.8-7.2,1-13.9,2.1-21.2,3.1.5,25.3.5,50.6,1.5,75.9h16.5c0,9.8-.5,19.6-1,29.4-5.2,0-10.8.5-16.5.5,0,26.3.5,52.2.5,78.5,7.2,0,15,.5,22.7.5v23.2c-16.5,0-32.5,0-49.1.5-1-78-2.1-157-2.6-235.5h0l.1.2h0Z"/>
      <path class="st3" d="M524,88.5c16.5.5,34.6-2.6,50.1,4.1,7.7,3.1,12.9,11.4,12.4,19.6v80.1c.5,5.7-3.1,10.3-6.7,15,3.6,3.6,8.3,7.7,7.7,13.4.5,35.1.5,70.2.5,105.4h-27.4c0-34.6.5-68.7,0-103.3h-7.7c0,34.6,1,69.2,2.1,104.3h-27.9c-1-79.5-2.1-159.1-3.1-238.6h0ZM548.8,113.8c.5,26.9.5,53.7,2.1,80.6h8.8c-1-22.2-1-43.9-1-65.6s-.5-9.8-1.5-14.5c-1.5,0-5.7-.5-8.3-.5h-.1Z"/>
      <path class="st3" d="M429.4,95.2c8.8-1.5,17.6-2.6,26.9-4.1,1.5,78.5,2.6,157,4.1,235.5h-26.3c-1-33.1-2.1-66.1-3.6-99.2-2.1,1-4.6,1.5-6.7,2.6,0,32,.5,64.6.5,97.1-8.8,0-17,.5-25.8.5-1.5-74.9-2.6-149.3-4.1-224.2,8.8-2.1,17.6-4.1,26.9-5.7,1,33.6,1.5,67.1,2.6,100.7,2.1-1,4.1-2.1,6.2-3.1,0-33.6-.5-66.6-.5-100.2h0s-.2.1-.2.1Z"/>
      <path class="st3" d="M595.3,92.6c9.3,1.5,18.6,2.6,27.9,3.6.5,67.1,1,134.8,2.1,202,7.7,0,15,.5,22.7.5v26.3h-48.6c-1.5-77.5-3.6-155-4.1-232.4h0Z"/>
      <path class="st3" d="M336,122.5c18.1-5.7,36.2-11.9,53.7-17v26.9c-4.1,1.5-8.8,3.1-12.9,4.6.5,63,1.5,126.5,2.6,189.6h-30v-178.2c-4.6,1-9.3,2.1-14.5,3.1,1-9.8,1-19.6,1-28.9h0l.1-.1h0Z"/>
      <path class="st3" d="M655.7,114.8c1-4.1,4.6-7.2,9.3-7.7,10.8-.5,19.6,6.2,30.5,9.3,4.1,1.5,9.3,2.1,12.4,6.2,4.1,5.2,3.6,11.9,3.6,18.1-.5,12.9.5,25.8,1,38.7,2.1,48,4.1,96.6,6.2,144.6-8.8,0-17,.5-25.3.5-1-20.7-2.1-41.3-3.6-62.5h-11.4c0,21.7-.5,42.9-1,64.6h-26.3c1-65.1,2.1-130.7,3.6-195.8,0-5.2-.5-10.8,1-16h0ZM677.4,137c-.5,33.1-1,66.1-1,99.2h11.9c-1-32.5-1.5-64.6-3.1-97.1-2.6-.5-5.2-1.5-7.7-2.1h-.1Z"/>
      <path class="st3" d="M302.9,134.4c9.3-3.1,18.6-6.7,27.9-10.3.5,61.5,1.5,123.4,2.1,184.9.5,6.2-2.6,12.9-8.3,16-3.6,2.1-7.7,1.5-11.9,1.5-8.8,0-18.1,0-26.9-.5s-17.6-8.3-16.5-17.6c-.5-51.7-.5-103.8-1-155.5,8.8-4.1,17.6-8.3,26.3-12.9.5,53.7,1,107.4,2.1,161.2,2.6,0,5.7.5,8.3.5,0-55.8-1.5-111.6-2.1-167.4h0v.1h0Z"/>
      <path class="st3" d="M722.3,125.6c7.7,3.1,15.5,6.2,22.7,9.3,5.2,21.7,10.3,43.9,15.5,65.6-.5-20.1-1.5-39.8-1.5-59.4,8.3,4.6,16.5,9.8,25.3,14.5,1,56.3,2.1,112.6,3.1,168.9h-23.8c-4.6-21.7-9.3-43.4-13.9-65.6-.5,22.2,0,44.4,0,66.6h-25.3c-.5-67.1-1.5-133.3-2.1-199.9h0Z"/>
      <path class="st3" d="M795.7,161.8c14.5,10.8,28.9,22.2,43.4,32.5,9.8,7.2,17.6,18.1,17.6,30.5.5,24.8.5,49.1,1,73.9.5,8.8-3.1,17.6-9.8,22.7-4.1,3.1-9.3,3.1-14.5,3.1-11.9,0-24.3-.5-36.2-.5-1-54.2-1-108.5-1.5-162.2h0ZM814.8,213.5c.5,29.4,1,58.9,1.5,88.3,3.1,0,6.2-.5,9.3-.5.5-6.7,1-12.9.5-19.6-.5-18.1-1-35.6-1-53.2-.5-3.1,0-6.2-1.5-9.3-2.6-1.5-5.7-3.6-8.8-5.7h0Z"/>
      <path class="st3" d="M223.9,181.4c6.2-6.2,13.9-11.9,22.7-12.9,6.2-.5,10.3,4.6,10.8,9.8,1,10.3,1,20.7,1,31-8.3,4.1-16.5,8.3-24.8,12.4-.5-4.1-1-7.7-1.5-11.9-2.6,1-4.6,2.1-7.2,2.6,0,10.3,1,21.2,1.5,31.5,7.2-2.6,14.5-5.7,21.7-6.7,7.2-.5,12.9,6.2,12.4,13.4v59.9c0,6.2-2.6,15-10.3,15.5-11.9.5-23.2.5-35.1.5-6.7.5-13.4-4.1-15.5-10.3-1-6.7-.5-13.9-.5-21.2,8.8-1.5,17.6-2.6,26.3-4.1,0,4.1.5,8.3.5,12.4h6.7c0-12.4-.5-24.3-.5-36.7-7.7,1-15,3.1-22.7,4.1-6.2.5-11.4-6.2-11.4-11.9v-32.5c0-9.3,2.6-18.6,7.2-26.9,5.2-7.2,12.4-11.9,18.6-18.1h0l.1.1h0Z"/>
      <path class="st3" d="M349.4,386c10.8-1,22.2-1.5,33.6-.5.5.5,1,2.1,1.5,3.1,1,7.7.5,15.5-.5,23.2-11.4,1-22.7.5-34.1,0-1.5-8.3-1.5-17-.5-25.8h0Z"/>
      <path class="st3" d="M608.7,384.4c3.1,6.2,6.2,12.9,9.3,19.1h-19.6c3.6-6.2,7.2-12.9,10.3-19.1Z"/>
      <path class="st3" d="M760,385.5c9.3,0,18.6-.5,27.9.5v11.9c-9.3.5-18.6.5-27.9.5.5-4.1,0-8.8,0-12.9h0Z"/>
      <path class="st3" d="M892.8,384.9c10.3,0,20.1-.5,30.5.5v11.9c-10.3.5-20.1.5-30.5.5v-12.9h0Z"/>
      <path class="st3" d="M145.9,404.6c3.1-6.7,6.2-12.9,9.8-19.6,3.1,6.2,6.2,12.9,9.8,19.1-6.7,0-12.9.5-19.6.5h0Z"/>
      <path class="st3" d="M579.2,484.6c-1.5-8.8,8.3-15.5,16-15.5h37.2c7.7,0,16,5.7,17.6,13.9.5,8.8,0,18.1.5,26.9h-29.4c0-5.2.5-9.8.5-14.5-3.6,0-7.7-.5-11.9-.5-1,23.2,0,47,.5,70.2,7.2,1.5,15,2.6,22.2,4.1,10.8,2.1,20.1,12.4,20.1,23.2,0,22.7-.5,44.9-.5,67.7s.5,14.5-3.1,21.2c-3.1,7.2-10.3,12.4-17.6,14.5-12.4,3.1-25.3,2.6-37.7,2.6-3.6-2.6-7.2-5.2-9.3-9.3s-2.1-8.3-2.6-12.4c0-9.3,0-18.6-.5-27.4,8.8-.5,18.1-1.5,26.9-2.1.5,7.2.5,13.9,1,21.2,4.6,0,10.8,2.1,14.5-2.1,1-6.2,0-11.9,0-18.1-.5-17,0-34.1-.5-51.7-8.8-2.1-17.6-3.6-26.9-5.7-10.8-1-16-12.9-17-22.7.5-27.9,0-55.8,0-83.7h0v.2h0Z"/>
      <path class="st3" d="M755.9,469.1c6.2-1,12.9-.5,19.6-1,9.8,0,19.1-.5,28.9,0,7.7.5,13.9,8.3,13.9,16,.5,7.7,0,16,0,23.2-8.8.5-18.1,1.5-27.4,2.6,0-4.6-.5-9.3-.5-13.9-4.1,0-7.7,0-11.9-.5v36.2c9.3,1,18.6,0,27.4,2.6,6.2,2.6,11.9,8.3,12.9,15.5,2.1,12.4,1.5,24.8,2.1,37.2,0,7.7,1,16-3.1,22.7s-8.3,13.9-14.5,18.1c-6.7,4.6-14.5,7.7-20.7,11.9-5.2,3.6-10.3,7.7-16.5,9.3-6.2,1-12.4-3.6-12.9-9.8-1.5-11.9-2.6-23.8-4.1-35.1,8.8-3.6,17.6-7.7,26.3-11.9,3.6,2.1,1,7.7,2.6,11.4,5.2-1.5,9.8-3.1,14.5-5.7-.5-13.4,0-26.9-1.5-39.8-8.8,0-18.1,1-26.9,1s-9.8-1-11.9-5.7c-1.5-5.2-1-10.3-1.5-16,0-19.6-1-39.8-1-59.4-1-3.6,2.1-7.7,6.2-8.8h0v-.1h0Z"/>
      <path class="st3" d="M244,471.2h33.6c7.7,0,16,0,23.8,2.6,5.2,1.5,10.3,5.2,10.8,10.8,1,6.7.5,13.4,1,20.7,0,16.5.5,33.1-1,49.6-.5,8.3-8.3,13.9-16.5,13.9-7.7.5-15-3.1-21.2-7.7v79c-10.3-5.7-20.7-11.9-31-17.6.5-50.1.5-100.7.5-151.3h0ZM271.4,496c.5,13.4.5,26.9,1,40.3,4.6,1,9.3,2.6,14.5,3.6.5-13.9.5-28.4.5-43.4-5.2,0-10.3,0-16-.5h0Z"/>
      <path class="st3" d="M327.7,471.2h54.8c6.2,0,12.4,3.6,15,9.8,1,4.6.5,9.3.5,13.9,0,21.2-.5,42.4,0,63.5,0,3.6,0,6.7-.5,10.3-3.1,3.6-7.7,8.3-12.9,6.7,9.3,3.6,16,13.9,15,24.3v89.9c-8.3-2.6-16.5-5.7-24.8-8.3v-92.5c-5.7-2.1-10.8-3.1-16.5-4.6-.5,30.5,0,60.4,0,90.9-10.3-3.6-20.1-7.7-30.5-11.4-.5-64,0-128.1,0-192.7h0l-.1.2h0ZM355.1,495.5c0,20.7.5,41.3,0,62,5.2,1.5,10.3,2.1,15.5,2.6.5-21.7.5-42.9.5-64.6h-16Z"/>
      <path class="st3" d="M410.9,471.2c23.2,0,46,0,69.2-.5v26.3c-13.4-.5-26.9-.5-40.3-.5v70.2c9.8,1.5,19.6,2.6,29.4,4.1,0,9.3-.5,18.1-1,27.9-9.3-.5-18.6-1-27.9-2.1.5,24.8.5,49.6.5,73.9,14.5,2.1,28.4,4.1,42.9,6.2v27.4c-23.2-4.1-46.5-8.3-69.7-12.4-.5-73.3-2.1-146.7-3.1-220.6h0v.0999h0Z"/>
      <path class="st3" d="M495,484.6c-.5-8.3,8.8-13.9,16-13.9,12.9,0,26.3-.5,39.3,0,5.7,0,10.3,3.6,13.9,7.2v31.5h-26.9c0-4.6,0-9.3-.5-13.4-5.2-1-9.8-1-15-.5v74.4c13.9,4.1,30.5,4.1,40.3,16,4.6,4.1,3.6,10.3,3.6,16,.5,25.8,2.1,51.7,2.1,78,.5,12.4-8.8,25.3-22.2,25.8-11.4,0-23.2.5-34.6,0-9.3-.5-13.4-10.8-14.5-19.1-1-11.4-1-22.7-1.5-34.6h26.3c0,7.7-.5,15.5.5,23.2,4.6,4.1,12.9,4.6,17.6,0,1-5.2.5-10.3.5-16-.5-18.1-1-36.7-1-55.3-9.8-2.6-19.6-5.2-29.4-7.7-3.1-1-7.2-2.1-9.3-5.2-4.6-6.7-5.2-15.5-4.6-23.2-.5-28.4-1-55.8-.5-83.2h-.0999Z"/>
      <path class="st3" d="M663.9,470.2c22.7-.5,46-.5,68.7-.5.5,9.3.5,18.1,1,27.4-13.4.5-26.3.5-39.8.5,0,20.1.5,39.8,1,59.4,8.8-2.1,17-4.1,26.3-5.7.5,8.8,1,17.6,1,26.3-9.3,2.6-18.1,4.6-27.4,7.7v62c13.4-4.6,27.4-10.3,41.3-15v30c-22.7,7.7-45.5,16-68.2,24.3-1-72.8-2.6-144.6-4.1-216.4h.2Z"/>
    </g>
    <g>
      <path class="st5" d="M302.9,122.5c56.8-27.4,118.8-44.9,181.8-50.6,22.2-1.5,43.9-1.5,66.1-.5,70.2,4.6,140,21.7,203.5,52.2,36.7,18.1,71.8,40.3,101.8,68.7,42.4,38.7,73.9,89.4,89.9,144.6H108.7c5.2-16,10.3-32,17.6-47,15-31.5,35.6-59.9,59.9-85.2,33.6-33.6,73.9-61,116.7-82.1h0v-.1h0ZM466.6,90c.5,78.5,2.1,157.5,2.6,236.1,16.5,0,32.5-.5,49.1-.5v-23.2c-7.7,0-15-.5-22.7-.5,0-26.3-.5-52.7-.5-78.5,5.7,0,10.8-.5,16.5-.5.5-9.8,1-19.6,1-29.4h-16.5c-.5-25.3-.5-50.6-1.5-75.9,7.2-1,13.9-2.1,21.2-3.1,0-8.8-.5-17-.5-25.8-16.5,0-32.5,1-48.6,1.5h0l-.1-.2h0ZM524,88.5c1,79.5,2.1,159.1,3.1,238.6h27.9c-.5-34.6-1.5-69.2-2.1-104.3h7.7c.5,34.6,0,68.7,0,103.3h27.4c0-35.1-.5-70.2-.5-105.4,1-5.7-4.1-9.8-7.7-13.4,3.6-4.1,7.2-9.3,6.7-15v-80.1c0-8.3-5.2-16-12.4-19.6-16-7.2-33.6-4.1-50.1-4.1h0ZM429.4,95.2c0,33.1.5,66.6.5,100.2-2.1,1-4.1,2.1-6.2,3.1-1-33.6-1-67.1-2.6-100.7-8.8,2.1-17.6,3.6-26.9,5.7,1.5,74.9,2.6,149.3,4.1,224.2,8.8,0,17-.5,25.8-.5,0-32.5-.5-64.6-.5-97.1,2.1-1,4.6-1.5,6.7-2.6,1.5,33.1,2.6,66.1,3.6,99.2h26.3c-1.5-78.5-2.6-156.5-4.1-235.5-9.3,1.5-18.1,3.1-26.9,4.1h0l.2-.1h0ZM595.3,92.6c.5,77.5,2.6,155,3.1,232.4h48.6v-26.3c-7.7,0-15-.5-22.7-.5-1-67.1-1-134.8-2.1-202-8.8-1-17.6-2.1-26.9-3.6h0ZM336,122.5c0,9.3-.5,19.1-.5,28.4,4.6-1,9.3-2.1,14.5-3.1v178.2h30c-1-63.5-2.1-126.5-2.6-189.6,4.1-1.5,8.8-3.1,12.9-4.6v-26.9c-18.1,5.7-36.2,11.9-54.2,17.6h-.1,0ZM655.7,114.8c-1.5,5.2-1,10.3-1,15.5-1.5,65.1-2.6,130.7-3.6,195.8h26.3c.5-21.7,1-42.9,1-64.6h11.4c1,20.7,2.1,41.8,3.6,62.5,8.3,0,17-.5,25.3-.5-2.1-48.6-4.1-96.6-6.2-144.6-.5-12.9-1.5-25.8-1-38.7,0-6.2.5-12.9-3.6-18.1-3.1-4.1-8.3-4.6-12.4-6.2-10.3-3.1-19.6-9.8-30.5-9.3-4.6,1-8.3,4.1-9.3,8.3h0v-.1ZM302.9,134.4c1,55.8,2.1,111.6,2.6,167.4-2.6,0-5.7,0-8.3-.5-1-53.7-1.5-107.4-2.1-161.2-8.8,4.1-18.1,8.3-26.3,12.9.5,52.2.5,103.8,1,155.5-1,9.3,7.7,17,16.5,17.6,8.8.5,18.1,0,26.9.5,4.1,0,8.3.5,11.9-1.5,5.7-3.1,8.8-9.3,8.3-16-.5-61.5-1.5-122.9-2.1-184.9-9.8,3.1-19.1,6.7-28.4,10.3h0v-.1h0ZM722.3,125.6c.5,66.6,1.5,132.7,2.1,199.4h25.3c0-22.2-.5-44.4,0-66.6,4.6,21.7,9.3,43.9,13.9,65.6h23.8c-1-56.3-2.1-112.6-3.1-168.9-8.3-4.6-17-9.3-25.3-14.5,0,20.1,1,39.8,1.5,59.4-5.2-21.7-10.3-43.9-15.5-65.6-7.2-2.6-15-5.7-22.7-8.8h0ZM795.7,161.8c.5,54.2,1,108,1,162.2,11.9,0,24.3.5,36.2.5s10.3,0,14.5-3.1c6.7-5.2,10.3-13.9,9.8-22.7-.5-24.8-.5-49.1-1-73.9,0-12.4-7.7-23.2-17.6-30.5-14.5-10.8-28.9-21.7-42.9-32.5h0ZM223.9,181.4c-6.2,6.2-13.9,11.4-18.1,18.6-4.6,8.3-7.2,17-7.2,26.9v32.5c0,6.2,4.6,12.4,11.4,11.9,7.7-.5,15.5-2.6,22.7-4.1,0,12.4,0,24.3.5,36.7h-6.7c0-4.1,0-8.3-.5-12.4-8.8,1-17.6,2.6-26.3,4.1,0,7.2-.5,13.9.5,21.2,2.1,6.2,9.3,10.8,15.5,10.3,11.9,0,23.2,0,35.1-.5,7.2-.5,10.3-8.8,10.3-15.5v-59.9c.5-6.7-5.2-13.9-12.4-13.4-7.7,1-14.5,4.1-21.7,6.7-.5-10.3-1.5-21.2-1.5-31.5,2.6-1,4.6-1.5,7.2-2.6.5,4.1,1,7.7,1.5,11.9,8.3-4.1,16.5-8.3,24.8-12.4,0-10.3,0-20.7-1-31-.5-5.7-5.2-10.8-10.8-9.8-9.3.5-16.5,6.2-23.2,12.4h0l-.1-.1h0Z"/>
      <path class="st5" d="M548.8,113.8h8.3c1,4.6,1.5,9.3,1.5,14.5,0,21.7.5,43.9,1,65.6h-8.8c-1-26.3-1-53.2-2.1-80.1,0,0,.1,0,.1,0Z"/>
      <path class="st5" d="M677.4,137c2.6.5,5.2,1.5,7.7,2.1,1.5,32.5,2.1,64.6,3.1,97.1h-11.9c0-33.1.5-66.1,1-99.2h.1Z"/>
      <path class="st5" d="M814.8,213.5c3.1,2.1,6.2,3.6,8.8,6.2,1.5,2.6,1.5,6.2,1.5,9.3,0,17.6.5,35.6,1,53.2,0,6.7,0,12.9-.5,19.6-3.1,0-6.2,0-9.3.5-.5-30-1-59.4-1.5-88.8h0Z"/>
      <path class="st5" d="M107.1,456.7h846.1c-17,54.8-48.6,104.9-90.9,143.6-42.4,39.3-94,68.2-148.2,87.3-59.4,20.7-121.9,30.5-184.4,30.5-43.4,1-86.8-5.7-129.1-16.5-43.9-11.4-86.3-28.4-126-50.1-37.7-21.2-73.3-46.5-102.8-77.5-30.5-32.5-55.8-72.8-64.6-117.3h-.0999ZM579.2,484.6c.5,27.9.5,55.8.5,84.2,1,9.3,6.2,21.7,17,22.7,8.8,2.1,17.6,3.6,26.9,5.7.5,17.6,0,34.6.5,51.7,0,6.2.5,12.4,0,18.1-3.6,4.1-9.3,2.1-14.5,2.1-.5-7.2-1-13.9-1-21.2-8.8,1-18.1,1.5-26.9,2.1,0,9.3,0,18.1.5,27.4,0,4.1,0,8.8,2.6,12.4,2.1,4.1,5.7,6.2,9.3,9.3,12.4-.5,25.3.5,37.7-2.6,7.7-2.1,14.5-7.2,17.6-14.5,3.1-6.7,2.6-13.9,3.1-21.2,0-22.7.5-45.5.5-67.7s-9.3-21.2-20.1-23.2c-7.2-1.5-15-2.6-22.2-4.1-.5-23.2-1.5-47-.5-70.2,4.1,0,7.7.5,11.9.5,0,4.6,0,9.8-.5,14.5h29.4c0-8.8.5-18.1-.5-26.9-2.1-8.3-9.8-13.9-17.6-13.9h-37.2c-8.8-.5-18.1,6.2-16.5,15h0v-.2h0ZM755.9,469.1c-4.1,1-7.2,4.6-6.7,9.3,0,20.1.5,39.8,1,59.4.5,5.2,0,10.8,1.5,16,2.1,4.6,7.7,5.7,11.9,5.7,8.8,0,18.1-1,26.9-1,1.5,12.9,1,26.3,1.5,39.8-4.6,2.6-9.8,4.1-14.5,5.7-1.5-3.1,1-8.8-2.6-11.4-8.8,4.1-17.6,7.7-26.3,11.9,1.5,11.9,2.6,23.2,4.1,35.1.5,6.2,6.7,10.8,12.9,9.8,6.2-1.5,30-17,37.2-21.2,6.2-4.1,10.3-11.4,14.5-18.1,4.1-6.7,3.1-15,3.1-22.7-.5-12.4,0-24.8-2.1-37.2-.5-7.2-6.2-12.9-12.9-15.5-8.8-3.1-18.1-2.1-27.4-2.6v-36.2c4.1,0,7.7.5,11.9.5.5,4.6.5,9.3.5,13.9,9.3-1,18.6-2.1,27.4-2.6,0-7.7.5-15.5,0-23.2,0-7.7-6.2-15-13.9-16-9.8-.5-19.1,0-28.9,0s-12.9-.5-19.1.5h0v.1001h0ZM244,471.2v151.9c10.3,5.7,20.7,11.4,31,17.6v-79c6.2,4.1,13.4,8.3,21.2,7.7,8.3,0,16-6.2,16.5-13.9,1.5-16.5,1-33.1,1-49.6-.5-6.7,0-13.4-1-20.7-1-5.7-6.2-9.3-10.8-10.8-7.7-2.6-16-2.6-23.8-2.6-11.4-.5-22.7-.5-34.1-.5h0v-.0999h0ZM327.7,471.2v192.7c9.8,3.6,20.1,7.7,30.5,11.4,0-30.5-.5-60.4,0-90.9,5.7,1.5,11.4,2.6,16.5,4.6v92.5c8.3,2.6,16.5,5.2,24.8,8.3v-89.9c1-10.3-5.7-20.7-15-24.3,5.2,1.5,9.8-3.1,12.9-6.7.5-3.6.5-6.7.5-10.3-.5-21.2,0-42.4,0-63.5s.5-9.8-.5-13.9c-2.6-6.2-8.3-9.8-15-9.8h-54.8l.1-.2h0ZM410.9,471.2c1,73.3,2.6,147.2,3.6,220.6,23.2,4.1,46.5,8.3,69.7,12.4v-27.4c-14.5-2.1-28.4-3.6-42.9-6.2,0-24.3-.5-49.1-.5-73.9,9.3.5,18.6,1.5,27.9,2.1.5-9.3.5-18.6,1-27.9-9.8-1.5-19.6-2.6-29.4-4.1v-70.2c13.4.5,26.9.5,40.3.5v-26.3c-23.2.5-46.5.5-69.7.5h0v-.1h0ZM495,484.6v82.1c0,7.7,0,16.5,4.6,23.2,2.1,3.1,6.2,4.1,9.3,5.2,9.8,2.6,19.6,5.2,29.4,7.7.5,18.6.5,37.2,1,55.3,0,5.7.5,10.8-.5,16-4.6,4.6-12.9,4.1-17.6,0-1-7.7-.5-15.5-.5-23.2h-26.3c.5,11.4.5,23.2,1.5,34.6,1,8.3,5.2,18.1,14.5,19.1,11.9.5,23.2.5,34.6,0,12.9-.5,22.2-13.4,22.2-25.8-.5-26.3-1.5-51.7-2.1-78,0-5.7.5-11.9-3.6-16-10.3-11.4-26.9-11.4-40.3-16,.5-24.8.5-49.6,0-74.4,4.6-1,9.8-1,15,.5,0,4.1,0,9.3.5,13.4h26.9v-31.5c-4.1-3.6-8.3-7.2-13.9-7.2-12.9-.5-25.8,0-39.3,0-7.2,1-16,6.7-15.5,15h.0999ZM663.9,470.2c1,71.8,2.6,143.6,3.6,215.4,22.7-8.3,45.5-16,68.2-24.3v-30c-13.9,4.6-27.4,10.3-41.3,15v-62c8.8-2.6,18.1-5.2,27.4-7.7-.5-8.8-1-17.6-1-26.3-8.8,2.1-17.6,4.1-26.3,5.7-.5-19.6-1-39.8-1-59.4,13.4,0,26.3,0,39.8-.5,0-8.8-.5-18.1-1-27.4-22.2,1-45.5,1-68.2,1.5h-.2Z"/>
      <path class="st5" d="M355.1,495.5c5.7,0,10.8,0,16,.5,0,21.2,0,42.9-.5,64.6-5.2-.5-10.3-1-15.5-2.6.5-21.2,0-41.8,0-62.5h0Z"/>
      <path class="st5" d="M271.4,496c5.2.5,10.8.5,16,.5,0,14.5,0,28.9-.5,43.4-4.6-1-9.8-2.1-14.5-3.6,0-13.4-.5-26.9-1-40.3h0Z"/>
    </g>
  </g>
  <g id="Layer_3">
    <g class="st4">
      <path class="st3" d="M1260.5,440.2c0,12.9-3.1,24.3-9.3,34.1s-15.5,17-27.9,22.2-26.9,7.7-44.4,7.7-15-.5-22.7-1.5c-7.2-1-14.5-2.6-21.2-4.6s-12.9-4.6-19.1-7.2v-43.4c10.3,4.6,21.2,8.8,32.5,12.4s22.7,5.7,33.6,5.7,13.9-1,18.6-3.1c4.6-2.1,8.3-4.6,10.3-8.3,2.1-3.6,3.1-7.7,3.1-11.9s-2.1-10.3-5.7-14.5c-3.6-4.1-8.8-7.7-15.5-10.8-6.7-3.1-13.9-7.2-22.2-10.8-5.2-2.6-10.8-5.2-17-8.8-6.2-3.6-11.9-7.7-17-12.9s-9.8-11.4-13.4-18.6-5.2-16-5.2-25.8,3.1-24.3,9.3-34.1c6.2-9.8,14.5-16.5,25.8-21.7s24.8-7.7,39.8-7.7,22.7,1.5,33.1,4.1c10.3,2.6,21.2,6.7,32.5,11.4l-15,36.7c-10.3-4.1-19.1-7.2-27.4-9.8-8.3-2.1-16.5-3.6-24.8-3.6s-10.8,1-15,2.6c-4.1,2.1-7.2,4.6-9.3,7.7s-3.1,7.2-3.1,11.9,1.5,9.8,4.6,13.4,7.7,7.2,13.9,10.3c6.2,3.1,13.9,7.2,23.2,11.9,11.4,5.2,21.2,10.8,28.9,16.5,7.7,5.7,13.9,12.4,18.6,20.7,5.2,8.8,7.2,18.6,7.2,30h0l.2-.2001h0Z"/>
      <path class="st3" d="M1475.4,280.6v143.1c0,15-3.1,28.9-9.8,41.3-6.7,12.4-17,22.2-30.5,28.9-13.4,7.2-30.5,10.8-51.1,10.8-29.4,0-51.7-7.2-66.6-22.2-15.5-15-23.2-34.6-23.2-59.4v-142.6h47v135.3c0,18.1,3.6,31,11.4,38.2,7.2,7.2,18.6,10.8,33.1,10.8s18.6-1.5,24.8-5.2c6.2-3.6,11.4-8.8,13.9-16.5s4.6-16.5,4.6-27.9v-134.8h46.5l-.1001.2h0Z"/>
      <path class="st3" d="M1610.2,501.7h-47v-182.3h-59.9v-39.3h166.8v39.3h-59.9v182.3h0Z"/>
      <path class="st3" d="M1880.9,501.7h-47v-95.6h-87.8v95.6h-47v-221.1h47v86.8h87.8v-86.8h47v221.1h0Z"/>
      <path class="st3" d="M2059.1001,501.7h-127.6v-221.1h127.6v38.2h-80.6v48.6h74.9v38.7h-74.9v56.8h80.6v38.8Z"/>
      <path class="st3" d="M2164.5,280.6c20.1001,0,36.7,2.6,49.6001,7.2,12.8999,4.6,22.7,12.4,28.8999,21.7s9.3,22.2,9.3,37.2-2.1001,19.1-5.7,26.3c-3.6001,7.7-8.8,13.9-15,19.1s-12.8999,9.3-20.1001,12.9l65.6001,96.6h-52.2l-52.7-84.7h-24.8v84.7h-47v-221.1h64l.0999.1h0ZM2161.3999,318.8h-14.5v59.9h15c15.5,0,26.8999-2.6,33.6001-7.7,6.7-5.2,9.8-12.9,9.8-22.7s-3.6001-18.1-10.8-22.2-18.1001-7.2-33.1001-7.2h0v-.0999h0Z"/>
      <path class="st3" d="M2299.8,501.7v-221.1h47v182.3h89.8999v38.7h-136.8999v.1h0Z"/>
      <path class="st3" d="M2605.6001,501.7l-16-52.7h-80.6001l-16,52.7h-50.6001l78-222.1h57.3l78.5,222.1h-50.6001.0002ZM2578.2,409.7l-16-51.7c-1-3.6-2.6001-7.7-4.1001-13.4s-3.1001-10.8-5.2-16.5-3.1001-10.3-4.1001-14.5c-1,4.1-2.6001,9.3-4.1001,15.5s-3.6001,11.9-5.2,17.6-2.6001,9.3-3.6001,11.9l-16,51.7h58.3999v-.5h0l-.0996-.1Z"/>
      <path class="st3" d="M2875.2,501.7h-59.3999l-96.1001-167.4h-1.5c.5,6.7.5,13.9,1,21.2.5,7.2.5,13.9,1,21.2.5,7.2.5,13.9,1,21.2v104.3h-41.8v-221.6h59.3999l96.1001,165.8h1c0-6.7-.5-13.4-.5-20.7s-.5-13.4-1-20.1-.5-13.4-.5-20.1v-104.9h42.3999v221.1h-1.0999Z"/>
      <path class="st3" d="M3109.2,389.1c0,24.8-4.6001,46-14.5,62.5s-23.2,29.4-41.3,37.7c-18.1001,8.3-39.8,12.4-65.1001,12.4h-62.5v-221.1h69.2c23.2,0,43.3999,4.1,60.3999,12.4s30.5,20.1,39.8,36.7c9.3,16.5,13.8999,35.6,13.8999,59.4h.1003ZM3060.6001,390.1c0-16.5-2.6001-30-7.2-40.3s-11.8999-18.1-21.2-23.2c-9.3-5.2-20.7-7.7-34.6001-7.7h-24.8v144.1h20.1001c22.7,0,39.8-6.2,51.1001-18.1s16.5-30.5,16.5-54.8h.0999Z"/>
    </g>
  </g>
  <g id="Layer_31">
    <g class="st4">
      <path class="st2" d="M1260.5,440.2c0,12.9-3.1,24.3-9.3,34.1s-15.5,17-27.9,22.2-26.9,7.7-44.4,7.7-15-.5-22.7-1.5c-7.2-1-14.5-2.6-21.2-4.6s-12.9-4.6-19.1-7.2v-43.4c10.3,4.6,21.2,8.8,32.5,12.4s22.7,5.7,33.6,5.7,13.9-1,18.6-3.1c4.6-2.1,8.3-4.6,10.3-8.3,2.1-3.6,3.1-7.7,3.1-11.9s-2.1-10.3-5.7-14.5c-3.6-4.1-8.8-7.7-15.5-10.8-6.7-3.1-13.9-7.2-22.2-10.8-5.2-2.6-10.8-5.2-17-8.8-6.2-3.6-11.9-7.7-17-12.9s-9.8-11.4-13.4-18.6-5.2-16-5.2-25.8,3.1-24.3,9.3-34.1c6.2-9.8,14.5-16.5,25.8-21.7s24.8-7.7,39.8-7.7,22.7,1.5,33.1,4.1c10.3,2.6,21.2,6.7,32.5,11.4l-15,36.7c-10.3-4.1-19.1-7.2-27.4-9.8-8.3-2.1-16.5-3.6-24.8-3.6s-10.8,1-15,2.6c-4.1,2.1-7.2,4.6-9.3,7.7s-3.1,7.2-3.1,11.9,1.5,9.8,4.6,13.4,7.7,7.2,13.9,10.3c6.2,3.1,13.9,7.2,23.2,11.9,11.4,5.2,21.2,10.8,28.9,16.5,7.7,5.7,13.9,12.4,18.6,20.7,5.2,8.8,7.2,18.6,7.2,30h0l.2-.2001h0Z"/>
      <path class="st2" d="M1475.4,280.6v143.1c0,15-3.1,28.9-9.8,41.3-6.7,12.4-17,22.2-30.5,28.9-13.4,7.2-30.5,10.8-51.1,10.8-29.4,0-51.7-7.2-66.6-22.2-15.5-15-23.2-34.6-23.2-59.4v-142.6h47v135.3c0,18.1,3.6,31,11.4,38.2,7.2,7.2,18.6,10.8,33.1,10.8s18.6-1.5,24.8-5.2c6.2-3.6,11.4-8.8,13.9-16.5s4.6-16.5,4.6-27.9v-134.8h46.5l-.1001.2h0Z"/>
      <path class="st2" d="M1610.2,501.7h-47v-182.3h-59.9v-39.3h166.8v39.3h-59.9v182.3h0Z"/>
      <path class="st2" d="M1880.9,501.7h-47v-95.6h-87.8v95.6h-47v-221.1h47v86.8h87.8v-86.8h47v221.1h0Z"/>
      <path class="st2" d="M2059.1001,501.7h-127.6v-221.1h127.6v38.2h-80.6v48.6h74.9v38.7h-74.9v56.8h80.6v38.8Z"/>
      <path class="st2" d="M2164.5,280.6c20.1001,0,36.7,2.6,49.6001,7.2,12.8999,4.6,22.7,12.4,28.8999,21.7s9.3,22.2,9.3,37.2-2.1001,19.1-5.7,26.3c-3.6001,7.7-8.8,13.9-15,19.1s-12.8999,9.3-20.1001,12.9l65.6001,96.6h-52.2l-52.7-84.7h-24.8v84.7h-47v-221.1h64l.0999.1h0ZM2161.3999,318.8h-14.5v59.9h15c15.5,0,26.8999-2.6,33.6001-7.7,6.7-5.2,9.8-12.9,9.8-22.7s-3.6001-18.1-10.8-22.2-18.1001-7.2-33.1001-7.2h0v-.0999h0Z"/>
      <path class="st2" d="M2299.8,501.7v-221.1h47v182.3h89.8999v38.7h-136.8999v.1h0Z"/>
      <path class="st2" d="M2605.6001,501.7l-16-52.7h-80.6001l-16,52.7h-50.6001l78-222.1h57.3l78.5,222.1h-50.6001.0002ZM2578.2,409.7l-16-51.7c-1-3.6-2.6001-7.7-4.1001-13.4s-3.1001-10.8-5.2-16.5-3.1001-10.3-4.1001-14.5c-1,4.1-2.6001,9.3-4.1001,15.5s-3.6001,11.9-5.2,17.6-2.6001,9.3-3.6001,11.9l-16,51.7h58.3999v-.5h0l-.0996-.1Z"/>
      <path class="st2" d="M2875.2,501.7h-59.3999l-96.1001-167.4h-1.5c.5,6.7.5,13.9,1,21.2.5,7.2.5,13.9,1,21.2.5,7.2.5,13.9,1,21.2v104.3h-41.8v-221.6h59.3999l96.1001,165.8h1c0-6.7-.5-13.4-.5-20.7s-.5-13.4-1-20.1-.5-13.4-.5-20.1v-104.9h42.3999v221.1h-1.0999Z"/>
      <path class="st2" d="M3109.2,389.1c0,24.8-4.6001,46-14.5,62.5s-23.2,29.4-41.3,37.7c-18.1001,8.3-39.8,12.4-65.1001,12.4h-62.5v-221.1h69.2c23.2,0,43.3999,4.1,60.3999,12.4s30.5,20.1,39.8,36.7c9.3,16.5,13.8999,35.6,13.8999,59.4h.1003ZM3060.6001,390.1c0-16.5-2.6001-30-7.2-40.3s-11.8999-18.1-21.2-23.2c-9.3-5.2-20.7-7.7-34.6001-7.7h-24.8v144.1h20.1001c22.7,0,39.8-6.2,51.1001-18.1s16.5-30.5,16.5-54.8h.0999Z"/>
    </g>
  </g>
</svg>